HIERARCHY
ROOT hip
{
  OFFSET 68.5887 84.6609 10.8351
  CHANNELS 6 Xposition Yposition Zposition Zrotation Xrotation Yrotation
  JOINT abdomen
  {
    OFFSET 0 20.6881 -0.73152
    CHANNELS 3 Zrotation Xrotation Yrotation
    JOINT chest
    {
      OFFSET 0 11.7043 -0.48768
      CHANNELS 3 Zrotation Xrotation Yrotation
      JOINT neck
      {
        OFFSET 0 22.1894 -2.19456
        CHANNELS 3 Zrotation Xrotation Yrotation
        JOINT head
        {
          OFFSET -0.24384 7.07133 1.2192
          CHANNELS 3 Zrotation Xrotation Yrotation
          JOINT leftEye
          {
            OFFSET 4.14528 8.04674 8.04672
            CHANNELS 3 Zrotation Xrotation Yrotation
            End Site
            {
              OFFSET 1 0 0
            }
          }
          JOINT rightEye
          {
            OFFSET -3.6576 8.04674 8.04672
            CHANNELS 3 Zrotation Xrotation Yrotation
            End Site
            {
              OFFSET 1 0 0
            }
          }
        }
      }
      JOINT rCollar
      {
        OFFSET -2.68224 19.2634 -4.8768
        CHANNELS 3 Zrotation Xrotation Yrotation
        JOINT rShldr
        {
          OFFSET -8.77824 -1.95073 1.46304
          CHANNELS 3 Zrotation Xrotation Yrotation
          JOINT rForeArm
          {
            OFFSET -28.1742 -1.7115 0.48768
            CHANNELS 3 Zrotation Xrotation Yrotation
            JOINT rHand
            {
              OFFSET -22.5879 0.773209 7.07136
              CHANNELS 3 Zrotation Xrotation Yrotation
              JOINT rThumb1
              {
                OFFSET -1.2192 -0.487915 3.41376
                CHANNELS 3 Zrotation Xrotation Yrotation
                JOINT rThumb2
                {
                  OFFSET -3.37035 -0.52449 3.41376
                  CHANNELS 3 Zrotation Xrotation Yrotation
                  End Site
                  {
                    OFFSET -1.78271 -1.18214 1.43049
                  }
                }
              }
              JOINT rIndex1
              {
                OFFSET -7.75947 0.938293 5.60832
                CHANNELS 3 Zrotation Xrotation Yrotation
                JOINT rIndex2
                {
                  OFFSET -2.54057 -0.884171 1.56538
                  CHANNELS 3 Zrotation Xrotation Yrotation
                  End Site
                  {
                    OFFSET -1.62519 -0.234802 1.16502
                  }
                }
              }
              JOINT rMid1
              {
                OFFSET -8.24714 1.18213 3.41376
                CHANNELS 3 Zrotation Xrotation Yrotation
                JOINT rMid2
                {
                  OFFSET -3.10165 -0.590103 1.0647
                  CHANNELS 3 Zrotation Xrotation Yrotation
                  End Site
                  {
                    OFFSET -2.48547 -0.328903 0.83742
                  }
                }
              }
              JOINT rRing1
              {
                OFFSET -8.82822 0.546677 1.51678
                CHANNELS 3 Zrotation Xrotation Yrotation
                JOINT rRing2
                {
                  OFFSET -2.60934 -0.819778 -0.0198488
                  CHANNELS 3 Zrotation Xrotation Yrotation
                  End Site
                  {
                    OFFSET -2.33842 -0.294052 0.168128
                  }
                }
              }
              JOINT rPinky1
              {
                OFFSET -8.27202 -0.0477905 -0.4584
                CHANNELS 3 Zrotation Xrotation Yrotation
                JOINT rPinky2
                {
                  OFFSET -1.82734 -0.647385 -0.700984
                  CHANNELS 3 Zrotation Xrotation Yrotation
                  End Site
                  {
                    OFFSET -1.69225 -0.51767 -0.607171
                  }
                }
              }
            }
          }
        }
      }
      JOINT lCollar
      {
        OFFSET 2.68224 19.2634 -4.8768
        CHANNELS 3 Zrotation Xrotation Yrotation
        JOINT lShldr
        {
          OFFSET 8.77824 -1.95073 1.46304
          CHANNELS 3 Zrotation Xrotation Yrotation
          JOINT lForeArm
          {
            OFFSET 28.1742 -1.7115 0.48768
            CHANNELS 3 Zrotation Xrotation Yrotation
            JOINT lHand
            {
              OFFSET 22.5879 0.773209 7.07136
              CHANNELS 3 Zrotation Xrotation Yrotation
              JOINT lThumb1
              {
                OFFSET 1.2192 -0.487915 3.41376
                CHANNELS 3 Zrotation Xrotation Yrotation
                JOINT lThumb2
                {
                  OFFSET 3.37035 -0.52449 3.41376
                  CHANNELS 3 Zrotation Xrotation Yrotation
                  End Site
                  {
                    OFFSET 1.78271 -1.18214 1.43049
                  }
                }
              }
              JOINT lIndex1
              {
                OFFSET 7.75947 0.938293 5.60832
                CHANNELS 3 Zrotation Xrotation Yrotation
                JOINT lIndex2
                {
                  OFFSET 2.54057 -0.884171 1.56538
                  CHANNELS 3 Zrotation Xrotation Yrotation
                  End Site
                  {
                    OFFSET 1.62519 -0.234802 1.16502
                  }
                }
              }
              JOINT lMid1
              {
                OFFSET 8.24714 1.18213 3.41376
                CHANNELS 3 Zrotation Xrotation Yrotation
                JOINT lMid2
                {
                  OFFSET 3.10165 -0.590103 1.0647
                  CHANNELS 3 Zrotation Xrotation Yrotation
                  End Site
                  {
                    OFFSET 2.48547 -0.328903 0.83742
                  }
                }
              }
              JOINT lRing1
              {
                OFFSET 8.82822 0.546677 1.51678
                CHANNELS 3 Zrotation Xrotation Yrotation
                JOINT lRing2
                {
                  OFFSET 2.60934 -0.819778 -0.0198488
                  CHANNELS 3 Zrotation Xrotation Yrotation
                  End Site
                  {
                    OFFSET 2.33842 -0.294052 0.168128
                  }
                }
              }
              JOINT lPinky1
              {
                OFFSET 8.27202 -0.0477905 -0.4584
                CHANNELS 3 Zrotation Xrotation Yrotation
                JOINT lPinky2
                {
                  OFFSET 1.82734 -0.647385 -0.700984
                  CHANNELS 3 Zrotation Xrotation Yrotation
                  End Site
                  {
                    OFFSET 1.69225 -0.51767 -0.607171
                  }
                }
              }
            }
          }
        }
      }
    }
  }
  JOINT rButtock
  {
    OFFSET -8.77824 4.35084 1.2192
    CHANNELS 3 Zrotation Xrotation Yrotation
    JOINT rThigh
    {
      OFFSET 0 -1.70687 -2.19456
      CHANNELS 3 Zrotation Xrotation Yrotation
      JOINT rShin
      {
        OFFSET 0 -36.8199 0.73152
        CHANNELS 3 Zrotation Xrotation Yrotation
        JOINT rFoot
        {
          OFFSET 0.73152 -45.1104 -5.12064
          CHANNELS 3 Zrotation Xrotation Yrotation
          End Site
          {
            OFFSET -1.1221 -3.69964 12.103
          }
        }
      }
    }
  }
  JOINT lButtock
  {
    OFFSET 8.77824 4.35084 1.2192
    CHANNELS 3 Zrotation Xrotation Yrotation
    JOINT lThigh
    {
      OFFSET 0 -1.70687 -2.19456
      CHANNELS 3 Zrotation Xrotation Yrotation
      JOINT lShin
      {
        OFFSET 0 -36.8199 0.73152
        CHANNELS 3 Zrotation Xrotation Yrotation
        JOINT lFoot
        {
          OFFSET -0.73152 -45.1104 -5.12064
          CHANNELS 3 Zrotation Xrotation Yrotation
          End Site
          {
            OFFSET 1.1221 -3.69964 12.103
          }
        }
      }
    }
  }
}
MOTION
Frames:	5
Frame Time:	0.00833333
65.5763 85.2982 0.293586 -0.748213 0.000154455 0.0136292 0.984349 -0.00436096 0.0272512 0.271543 -0.00455356 0.0470443 2.78559e-015 -7.95139e-016 -1.36664e-016 8.04767e-015 3.18055e-015 -3.49426e-016 -0 0 0 -0 0 0 1.19145e-015 4.65902e-018 9.93923e-017 3.13819e-014 3.85145e-016 0 5.01633e-013 -1.41137e-013 -1.27222e-014 5.71994e-012 1.76322e-013 -2.3218e-013 1.35006e-011 7.00402e-014 -5.1843e-013 2.33107e-011 1.24042e-013 -9.13614e-013 1.35078e-011 7.23576e-014 -5.24792e-013 7.73091 5.47488 0.417314 1.35006e-011 7.03698e-014 -5.24792e-013 2.90554 0.965183 0.102902 1.35102e-011 7.0668e-014 -5.26382e-013 10.2786 0.731801 0.0259123 1.35005e-011 7.07673e-014 -5.1843e-013 2.22167 -0.733487 -0.20892 1.19406e-015 2.32951e-018 -1.98785e-016 2.58799e-014 8.69683e-017 -1.98785e-015 4.96912e-013 1.52269e-013 -2.8625e-014 5.72506e-012 -1.34279e-013 -2.03556e-013 1.35022e-011 4.09385e-014 -5.24792e-013 2.33278e-011 6.67917e-014 -9.04073e-013 1.34983e-011 4.21423e-014 -5.21611e-013 -7.73091 5.47488 -0.417314 1.35012e-011 4.12478e-014 -5.24792e-013 -2.90554 0.965183 -0.102902 1.34936e-011 4.12478e-014 -5.25587e-013 -10.2786 0.731801 -0.0259123 1.35078e-011 4.05521e-014 -5.37514e-013 -2.22167 -0.733487 0.20892 -2.03217e-016 0 -3.88251e-019 1.2489 -5.45296 -0.109167 6.86467e-005 4.32231 0.0238749 -0.510761 1.12952 0.0812455 2.03217e-016 0 3.88251e-019 0.249752 -1.91924 0.0129218 0.00928306 -2.07855 0.0766791 0.496168 3.99654 -0.137932 
59.3808 84.2609 -7.08688 2.82642 6.77924 25.7884 -0.286413 -1.67772 -0.68008 1.6119 1.39191 -0.181915 -4.88928 0.56971 -2.94992 4.6713 2.11287 -5.2594 -0 0 0 -0 0 0 -2.35129e-014 2.13136e-013 7.48743e-015 21.7906 5.46789 1.15875 -3.51547 -1.47901 5.6126 0.00736745 -1.9093 -0.267801 5.53473e-010 -4.18341e-012 1.42492e-009 9.523e-010 -9.06568e-012 2.46521e-009 5.53478e-010 -4.1807e-012 1.42491e-009 7.73091 5.47488 0.417314 5.53473e-010 -4.18198e-012 1.42492e-009 2.90554 0.965183 0.102902 5.53482e-010 -4.18194e-012 1.42492e-009 10.2786 0.731801 0.0259123 5.53471e-010 -4.18102e-012 1.42492e-009 2.22167 -0.733487 -0.20892 -2.35571e-014 2.13133e-013 7.12441e-015 -22.8853 10.3535 -2.21075 3.14392 -1.2657 -5.07311 -0.0048728 -1.54896 0.217405 1.33034e-009 8.33396e-011 -9.95633e-010 2.30155e-009 1.44305e-010 -1.71651e-009 1.33033e-009 8.33414e-011 -9.95629e-010 -7.73091 5.47488 -0.417314 1.33034e-009 8.33395e-011 -9.95639e-010 -2.90554 0.965183 -0.102902 1.33033e-009 8.33416e-011 -9.95634e-010 -10.2786 0.731801 -0.0259123 1.33034e-009 8.33414e-011 -9.95642e-010 -2.22167 -0.733487 0.20892 -2.03217e-016 0 -3.88251e-019 -1.8065 -6.08624 1.45616 0.00989481 7.51311 0.0957615 -0.982698 -2.73364 -7.28257 2.03217e-016 0 3.88251e-019 1.76443 -3.27049 -1.89676 -0.0407707 3.73764 -0.145857 1.49606 -2.89334 7.85619 
59.3797 84.2626 -7.09289 0.923792 9.35017 53.6612 -1.67953 -3.4455 -1.4283 3.04181 2.8668 -0.423877 -9.99505 1.16804 -6.07106 10.0305 4.28601 -10.8459 -0 0 0 -0 0 0 -5.07191e-014 4.37389e-013 1.73906e-014 44.5841 11.2475 2.41731 -6.92006 -2.99627 11.5605 -0.00435434 -3.94374 -0.554172 1.13841e-009 -3.20311e-011 2.95295e-009 1.95861e-009 -5.92991e-011 5.10891e-009 1.13841e-009 -3.20281e-011 2.95294e-009 7.73091 5.47488 0.417314 1.13841e-009 -3.20286e-011 2.95295e-009 2.90554 0.965183 0.102902 1.13842e-009 -3.20288e-011 2.95295e-009 10.2786 0.731801 0.0259123 1.13841e-009 -3.20269e-011 2.95296e-009 2.22167 -0.733487 -0.20892 -5.08134e-014 4.37385e-013 1.69526e-014 -46.1529 21.2477 -4.79983 6.22545 -2.57103 -10.445 0.00276992 -3.18204 0.447156 2.7549e-009 1.69035e-010 -2.05285e-009 4.76616e-009 2.92683e-010 -3.53916e-009 2.7549e-009 1.69037e-010 -2.05285e-009 -7.73091 5.47488 -0.417314 2.75491e-009 1.69034e-010 -2.05287e-009 -2.90554 0.965183 -0.102902 2.75489e-009 1.69038e-010 -2.05286e-009 -10.2786 0.731801 -0.0259123 2.7549e-009 1.69039e-010 -2.05286e-009 -2.22167 -0.733487 0.20892 -2.03217e-016 0 -3.88251e-019 -5.00154 -6.75196 3.11832 0.0114632 10.8903 0.173408 -2.55703 -6.62981 -15.1582 2.03217e-016 0 3.88251e-019 3.26425 -4.69093 -3.92128 -0.0439726 9.88336 -0.386022 4.63946 -9.81475 16.5354 
59.3773 84.2645 -7.10149 -2.25182 5.0423 77.7395 -2.95226 -5.02142 -2.10194 4.32616 4.18459 -0.641383 -14.4926 1.69102 -8.85322 15.1669 6.12495 -15.8603 -0 0 0 -0 0 0 -7.29216e-014 6.39398e-013 2.22635e-014 64.6849 16.3762 3.60694 -9.689 -4.26702 16.8803 -0.0316688 -5.72739 -0.806984 1.63342e-009 -1.26903e-011 4.2758e-009 2.81028e-009 -2.74451e-011 7.39747e-009 1.63342e-009 -1.26868e-011 4.27578e-009 7.73091 5.47488 0.417314 1.63342e-009 -1.26867e-011 4.2758e-009 2.90554 0.965183 0.102902 1.63343e-009 -1.26871e-011 4.2758e-009 10.2786 0.731801 0.0259123 1.63341e-009 -1.26846e-011 4.2758e-009 2.22167 -0.733487 -0.20892 -7.30594e-014 6.39393e-013 2.17708e-014 -65.9299 30.8597 -7.6061 8.76698 -3.67822 -15.2478 0.0207445 -4.64662 0.654128 3.964e-009 2.49937e-010 -2.98585e-009 6.858e-009 4.32781e-010 -5.14771e-009 3.964e-009 2.4994e-010 -2.98584e-009 -7.73091 5.47488 -0.417314 3.96401e-009 2.49936e-010 -2.98587e-009 -2.90554 0.965183 -0.102902 3.96399e-009 2.49942e-010 -2.98585e-009 -10.2786 0.731801 -0.0259123 3.964e-009 2.49943e-010 -2.98585e-009 -2.22167 -0.733487 0.20892 -2.03217e-016 0 -3.88251e-019 -7.81293 -7.3352 4.5989 0.00483299 13.8946 0.244354 -4.86149 -9.7533 -22.3248 2.03217e-016 0 3.88251e-019 4.52276 -5.94863 -5.73785 -0.00169007 15.3692 -0.611777 9.2487 -15.2921 24.7451 
59.3826 84.2596 -7.11219 -3.1965 -1.62644 93.1728 -3.83662 -6.12053 -2.58232 5.22305 5.10989 -0.796267 -17.5935 2.043 -10.7846 18.9368 7.33223 -19.3664 -0 0 0 -0 0 0 -8.26148e-014 7.85798e-013 1.4561e-014 78.5464 19.9037 4.49979 -11.4703 -5.08403 20.5893 -0.0584853 -6.88451 -0.972285 1.9036e-009 1.24622e-010 5.08566e-009 3.27533e-009 2.09627e-010 8.79816e-009 1.9036e-009 1.24626e-010 5.08564e-009 7.73091 5.47488 0.417314 1.9036e-009 1.24626e-010 5.08566e-009 2.90554 0.965183 0.102902 1.90361e-009 1.24626e-010 5.08567e-009 10.2786 0.731801 0.0259123 1.90359e-009 1.24628e-010 5.08567e-009 2.22167 -0.733487 -0.20892 -8.27794e-014 7.85793e-013 1.4064e-014 -79.0007 37.454 -10.0446 10.4248 -4.4035 -18.6005 0.0398762 -5.69019 0.80237 4.63444e-009 3.18857e-010 -3.60828e-009 8.01792e-009 5.52179e-010 -6.22102e-009 4.63444e-009 3.18861e-010 -3.60827e-009 -7.73091 5.47488 -0.417314 4.63445e-009 3.18856e-010 -3.6083e-009 -2.90554 0.965183 -0.102902 4.63443e-009 3.18864e-010 -3.60828e-009 -10.2786 0.731801 -0.0259123 4.63444e-009 3.18865e-010 -3.60828e-009 -2.22167 -0.733487 0.20892 -2.03217e-016 0 -3.88251e-019 -9.73971 -7.72626 5.61635 -0.00449619 15.9667 0.294415 -6.92954 -11.637 -27.4013 2.03217e-016 0 3.88251e-019 5.36891 -6.82106 -7.01615 0.0550462 19.2063 -0.780073 13.4546 -18.5343 30.8136 
